<?xml version="1.0" encoding="UTF-8"?>
<svg version="1.1" xmlns="http://www.w3.org/2000/svg" width="412" height="750">
<path d="M0 0 C135.96 0 271.92 0 412 0 C412 247.5 412 495 412 750 C276.04 750 140.08 750 0 750 C0 502.5 0 255 0 0 Z " fill="#000000" transform="translate(0,0)"/>
<path d="M0 0 C2.00962321 11.42142846 3.62820355 24.28242473 -3.04466808 34.43147606 C-8.7500616 42.22357041 -15.69948914 49.0220461 -22.57623339 55.76805711 C-25.14794001 58.30748091 -27.67323422 60.89083678 -30.20041597 63.47445506 C-36.17833553 69.58392498 -42.22699906 75.61602962 -48.32763672 81.6027832 C-54.56484663 87.72597395 -60.67028837 93.96109377 -66.72295821 100.26632577 C-71.97228675 105.72607586 -77.29444041 111.10688026 -82.67874849 116.43355101 C-85.87265126 119.59442903 -89.03483213 122.77456958 -92.12913895 126.0332737 C-103.67887813 138.13790108 -113.52749796 147.88398862 -130.95094764 148.63412565 C-139.34957079 148.75457293 -147.67803191 148.08426183 -156 147 C-155.61914941 141.97277622 -152.98818945 139.40212793 -149.57635498 136.00785828 C-149.00480848 135.42372172 -148.43326197 134.83958516 -147.84439588 134.23774749 C-145.9249847 132.28128294 -143.99148968 130.33938057 -142.05761719 128.3972168 C-140.67879461 126.99824159 -139.30076182 125.59848761 -137.92346191 124.19801331 C-134.17691605 120.39470985 -130.41701013 116.60489862 -126.6527853 112.81909919 C-124.30064341 110.4530095 -121.95074138 108.08471689 -119.60147858 105.71576881 C-112.24851553 98.30273363 -104.88717579 90.89816228 -97.51407886 83.50515145 C-89.00651607 74.97437755 -80.52755332 66.41646871 -72.07229114 57.83386105 C-65.53286197 51.19937678 -58.96862565 44.59011394 -52.38515973 37.99932796 C-48.45464851 34.0633251 -44.53541719 30.11747443 -40.64174652 26.14499474 C-36.97643186 22.40687187 -33.28123559 18.70109401 -29.56111145 15.01753807 C-28.20382202 13.66305175 -26.85751781 12.29745016 -25.52352142 10.92001724 C-17.56582783 2.71849127 -12.19695202 -2.3800636 0 0 Z " fill="#0E0E0E" transform="translate(156,603)"/>
<path d="M0 0 C4.14526878 13.77028027 5.56761581 28.419049 0 42 C-11.41814781 62.76473767 -32.19236463 79.6674161 -49.13384926 95.79867911 C-54.5458011 100.96825281 -59.8208722 106.26154371 -65.06923503 111.59649432 C-70.81232855 117.42953836 -76.63513792 123.17605609 -82.49981117 128.88666916 C-84.9663715 131.29033494 -87.40414165 133.71828901 -89.82149315 136.17140579 C-110.75001909 157.30508992 -110.75001909 157.30508992 -126.25664997 157.58167076 C-131.90356333 157.41794896 -137.42839751 156.93378332 -143 156 C-143.95866779 150.66249052 -144.69049711 145.10077937 -142.01239705 140.18849802 C-138.53950431 135.43762539 -134.20759364 131.44302116 -129.98071289 127.37548828 C-128.58033663 125.97742659 -127.18303815 124.57627628 -125.78858948 123.17230225 C-122.0095349 119.38498686 -118.18891253 115.64233831 -114.35900044 111.90655375 C-110.35749488 107.98906256 -106.39542543 104.03208157 -102.42881775 100.07931519 C-94.91791093 92.60670682 -87.37162726 85.17090316 -79.81221336 77.74740493 C-71.20720781 69.29322334 -62.64539842 60.79584074 -54.08564389 52.29588723 C-41.48879724 39.79033598 -28.87743887 27.29928845 -16.22211266 14.85289764 C-14.84942231 13.50239991 -13.47754396 12.15107629 -12.10651398 10.79889297 C-10.24379582 8.96234269 -8.37797381 7.12901001 -6.51112366 5.29666138 C-5.96152184 4.7536964 -5.41192002 4.21073141 -4.84566361 3.65131295 C-1.11452778 0 -1.11452778 0 0 0 Z " fill="#0E0E0E" transform="translate(412,10)"/>
<path d="M0 0 C-5.4832487 6.66859393 -11.56537937 12.71373784 -17.66503906 18.81030273 C-18.84512852 19.99338825 -20.02501399 21.17667727 -21.20471191 22.3601532 C-24.39204695 25.55627919 -27.58257832 28.74919542 -30.77399158 31.94124866 C-32.76763084 33.93560031 -34.76055574 35.93066294 -36.75322723 37.92598152 C-43.70372974 44.88571566 -50.65679064 51.84288186 -57.61230469 58.79760742 C-64.10056766 65.28526766 -70.58321076 71.77850647 -77.06329179 78.27433819 C-82.62926874 83.85336262 -88.19906562 89.42855355 -93.7718904 95.00073773 C-97.099732 98.32832385 -100.4259877 101.65745898 -103.74842072 104.99044609 C-106.86634532 108.11800663 -109.9889739 111.24079065 -113.1153717 114.35988045 C-114.26443026 115.50788806 -115.41176663 116.65762228 -116.55728912 117.80915833 C-118.11503985 119.37455929 -119.67875227 120.93374352 -121.24420166 122.49143982 C-122.55712881 123.80518412 -122.55712881 123.80518412 -123.89657974 125.14546871 C-126 127 -126 127 -128 127 C-131.3324902 111.90888762 -133.28937973 94.91702151 -124.72442627 81.25146484 C-115.31705313 67.91792953 -103.34014373 56.5920137 -91.56996953 45.3706913 C-88.04171933 41.9893268 -84.62927456 38.51576856 -81.26342773 34.97314453 C-56.73637236 9.1875587 -37.18957402 -7.97864381 0 0 Z " fill="#0E0E0E" transform="translate(397,0)"/>
<path d="M0 0 C-1.54808808 3.68719861 -3.78514424 6.03419708 -6.59962463 8.84686279 C-7.07023644 9.31988901 -7.54084824 9.79291523 -8.02572101 10.28027558 C-9.60170285 11.86188706 -11.18472312 13.43625715 -12.76782227 15.01074219 C-13.89990779 16.14390075 -15.03156021 17.27749215 -16.16281128 18.41148376 C-19.2345395 21.48805875 -22.31248034 24.55834854 -25.39170194 27.62742138 C-28.60962676 30.83656754 -31.82228334 34.05097966 -35.03562927 37.26470947 C-40.43009832 42.6582421 -45.82842655 48.04788741 -51.22924805 53.43505859 C-57.48217821 59.67224358 -63.72984651 65.91465964 -69.9745422 72.1600883 C-75.97461673 78.16077207 -81.97753816 84.15859888 -87.98206902 90.1548233 C-90.54145695 92.71067181 -93.09998577 95.26737588 -95.65786934 97.82472992 C-98.66532907 100.83118886 -101.67531278 103.83509775 -104.68731308 106.83700752 C-105.79559186 107.94235335 -106.90301357 109.04855924 -108.00953865 110.15566063 C-109.51318118 111.65979011 -111.01983743 113.16083164 -112.52735901 114.66107178 C-113.37188912 115.50392605 -114.21641924 116.34678032 -115.08654118 117.21517563 C-117 119 -117 119 -118 119 C-120.97479869 102.29321216 -123.24960437 83.69125737 -113.37221718 68.9164238 C-105.74907745 58.64469976 -96.634196 49.69502698 -87.35424805 40.93359375 C-82.91201294 36.73682375 -78.68456524 32.37784637 -74.48166847 27.94309616 C-51.38597458 3.78131688 -33.58477239 -6.14386719 0 0 Z " fill="#0E0E0E" transform="translate(118,603)"/>
<path d="M0 0 C3.93028048 13.65729684 6.18900488 29.74280645 -0.95724487 42.74113464 C-13.05328892 62.37525647 -36.75868967 89.60602638 -59.53417969 96.33007812 C-71.1246475 98.72889707 -82.72622729 97.24435277 -94 94 C-89.37759466 88.45300461 -84.45895769 83.31647441 -79.34838867 78.21899414 C-78.07664291 76.9446199 -78.07664291 76.9446199 -76.77920532 75.64450073 C-74.4735867 73.33525691 -72.1657611 71.02824915 -69.8567369 68.72241139 C-67.43605295 66.30427303 -65.01782529 63.88368021 -62.59919739 61.46348572 C-58.54522146 57.40769658 -54.48915465 53.35400746 -50.43188477 49.30151367 C-45.73675231 44.61184426 -41.04526282 39.91855355 -36.35560626 35.22340876 C-32.32421876 31.18749214 -28.29089707 27.15351624 -24.25593358 23.12117475 C-21.84771189 20.71451412 -19.44017599 18.30717791 -17.03438377 15.89808846 C-14.36020591 13.22138794 -11.68287289 10.54788511 -9.00463867 7.87524414 C-8.20414597 7.0727272 -7.40365326 6.27021027 -6.5789032 5.44337463 C-5.49180054 4.36050171 -5.49180054 4.36050171 -4.38273621 3.25575256 C-3.74988299 2.62327638 -3.11702978 1.99080019 -2.4649992 1.33915806 C-1 0 -1 0 0 0 Z " fill="#0E0E0E" transform="translate(156,656)"/>
<path d="M0 0 C-9.26459954 10.86423587 -18.80572135 21.45547852 -28.61987782 31.82630825 C-32.05754243 35.46527861 -35.44676662 39.13111925 -38.74731445 42.89526367 C-62.21382499 69.56745681 -62.21382499 69.56745681 -79.22021484 70.90673828 C-89.20747883 71.37573238 -99.12892206 70.47897961 -109 69 C-107.31482388 64.88401547 -104.40930922 61.83870256 -101.47265625 58.57910156 C-100.90584641 57.94453537 -100.33903656 57.30996918 -99.75505066 56.65617371 C-94.46101244 50.76401151 -89.04381277 44.98799322 -83.58700562 39.24663162 C-79.9367218 35.40132272 -76.3360668 31.52854503 -72.82958984 27.55126953 C-50.45438621 2.25114049 -33.77196533 -5.23744043 0 0 Z " fill="#0E0E0E" transform="translate(334,0)"/>
<path d="M0 0 C3.78667246 14.5415356 5.76389576 30.72935601 -1.87548828 44.34191895 C-13.34372085 62.13688031 -34.31973611 86.28845188 -55.34472656 92.140625 C-66.97138072 94.39932452 -78.63349041 92.95988333 -90 90 C-85.48430684 84.58941263 -80.70399065 79.56118559 -75.71557617 74.58618164 C-74.90675995 73.7756131 -74.09794373 72.96504456 -73.26461792 72.12991333 C-70.6098993 69.47081874 -67.95157015 66.81536835 -65.29296875 64.16015625 C-63.44291299 62.30942663 -61.59300568 60.4585486 -59.74324036 58.60752869 C-55.87757792 54.74005349 -52.00982582 50.87467754 -48.14086914 47.01049805 C-43.66386231 42.53895525 -39.19050041 38.06379024 -34.71896952 33.58677202 C-30.41236272 29.27509176 -26.10296343 24.96621409 -21.79235268 20.65853691 C-19.95868731 18.82554066 -18.12577008 16.9917957 -16.29360008 15.15730476 C-13.74395393 12.60513592 -11.19115362 10.05616584 -8.63745117 7.50805664 C-7.87436142 6.74294266 -7.11127167 5.97782867 -6.32505798 5.18952942 C-5.63397949 4.50127075 -4.942901 3.81301208 -4.23088074 3.10389709 C-3.32584698 2.19942888 -3.32584698 2.19942888 -2.40252972 1.27668858 C-1 0 -1 0 0 0 Z " fill="#0E0E0E" transform="translate(412,76)"/>
<path d="M0 0 C4.91298984 33.9362794 4.91298984 33.9362794 -3.82858849 46.68345642 C-10.48928305 55.27623377 -18.66429479 62.50817855 -26.82830811 69.63317871 C-30.3920672 72.78742057 -33.83616417 76.06756506 -37.29492188 79.3359375 C-42.32625936 84.06018881 -47.39685234 88.7329996 -52.56225586 93.31054688 C-53.10100342 93.79004791 -53.63975098 94.26954895 -54.19482422 94.76358032 C-57.87645142 98 -57.87645142 98 -59 98 C-63.22577533 84.64290015 -65.14826838 70.03635168 -59 57 C-51.49307709 45.24799404 -40.65760564 35.48921822 -30.625 25.9375 C-29.94747303 25.29100117 -29.26994606 24.64450233 -28.57188797 23.97841263 C-21.64579559 17.39084596 -14.62580354 10.90760589 -7.45947266 4.58178711 C-6.93368905 4.11312257 -6.40790545 3.64445803 -5.866189 3.16159153 C-2.23740291 0 -2.23740291 0 0 0 Z " fill="#0E0E0E" transform="translate(59,560)"/>
<path d="M0 0 C2.07359394 9.81289831 3.89772987 21.73658932 -1.0729599 30.99945831 C-7.90345381 41.30761118 -17.73857161 49.62284196 -26.82830811 57.87786865 C-30.3715766 61.12788982 -33.82811262 64.46770908 -37.29492188 67.79882812 C-42.34161357 72.6244271 -47.41692248 77.4155579 -52.56225586 82.13598633 C-53.10100342 82.63276886 -53.63975098 83.12955139 -54.19482422 83.64138794 C-57.87930827 87 -57.87930827 87 -59 87 C-62.29625307 72.49986729 -65.04473836 55.20682368 -57.10870361 41.80645752 C-51.33139178 33.73643749 -44.4898107 26.76192473 -37.375 19.875 C-36.34807303 18.86313076 -35.32126778 17.85113797 -34.29458618 16.83901978 C-31.80320321 14.40372144 -29.26577682 12.02844636 -26.67930412 9.6944561 C-25.25496644 8.40698562 -23.85032161 7.09783257 -22.44642639 5.7881012 C-15.17452087 -0.4102657 -9.38605176 -1.03471245 0 0 Z " fill="#0E0E0E" transform="translate(59,506)"/>
<path d="M0 0 C-1.22154785 1.42034546 -1.22154785 1.42034546 -2.46777344 2.86938477 C-4.29754669 5.00057053 -6.11626262 7.13917276 -7.91711426 9.29489136 C-13.52165977 16.00196082 -19.29067988 22.54444814 -25.25 28.9375 C-25.7164304 29.43849339 -26.18286079 29.93948677 -26.66342545 30.45566177 C-37.44699282 41.94316157 -47.55616985 52.08234313 -64.13265991 52.98951721 C-73.19520007 53.04746184 -82.15343536 51.90245042 -91 50 C-90.18563477 49.05310303 -89.37126953 48.10620605 -88.53222656 47.13061523 C-86.70245331 44.99942947 -84.88373738 42.86082724 -83.08288574 40.70510864 C-77.47834023 33.99803918 -71.70932012 27.45555186 -65.75 21.0625 C-65.2835696 20.56150661 -64.81713921 20.06051323 -64.33657455 19.54433823 C-45.00203774 -1.05232334 -27.77677335 -5.97338474 0 0 Z " fill="#0E0E0E" transform="translate(216,700)"/>
<path d="M0 0 C3.1809479 14.38322315 6.16525509 31.95405697 -1.93273926 45.14929199 C-7.81070575 53.03770047 -14.7070155 59.91445335 -21.875 66.625 C-22.65811302 67.36028679 -22.65811302 67.36028679 -23.45704651 68.11042786 C-42.59432891 86 -42.59432891 86 -46 86 C-49.098011 72.77016909 -51.34201085 57.8982715 -46 45 C-40.0101966 35.44557446 -31.74706327 27.60455471 -23.5625 19.9375 C-23.02643253 19.43449497 -22.49036507 18.93148994 -21.93805313 18.41324234 C-2.22508628 0 -2.22508628 0 0 0 Z " fill="#0E0E0E" transform="translate(412,139)"/>
<path d="M0 0 C1.84569025 13.6567483 3.20319202 26.95764621 -5.43408203 38.55517578 C-13.24206356 47.15507274 -20.10658944 50.6221666 -31.5234375 51.28125 C-41.70991012 51.63779793 -51.8645836 50.98461628 -62 50 C-54.86519782 41.48417488 -47.12523763 33.54509158 -39.36125851 25.60556889 C-36.89597997 23.08355586 -34.44494652 20.55049429 -32.02270508 17.98706055 C-29.2067043 15.00775732 -26.33856857 12.08383159 -23.46484375 9.16015625 C-22.61019028 8.24154312 -21.7555368 7.32292999 -20.87498474 6.3764801 C-14.23549683 -0.24526825 -9.23540198 -1.20126194 0 0 Z " fill="#0E0E0E" transform="translate(253,700)"/>
<path d="M0 0 C10.23 0 20.46 0 31 0 C27.15467476 4.48621278 23.36724569 8.78275491 19.19921875 12.93359375 C18.41645317 13.71779442 18.41645317 13.71779442 17.61787415 14.51783752 C16.52927222 15.60711301 15.43943447 16.69515479 14.34838867 17.78198242 C12.67052316 19.45442194 10.99815174 21.13222544 9.32617188 22.81054688 C8.2633419 23.8727172 7.20020239 24.9345779 6.13671875 25.99609375 C5.63573166 26.49910507 5.13474457 27.00211639 4.61857605 27.52037048 C1.11499316 31 1.11499316 31 0 31 C0 20.77 0 10.54 0 0 Z " fill="#0E0E0E" transform="translate(172,0)"/>
<path d="M0 0 C7.26 0 14.52 0 22 0 C15.23830551 7.88864358 15.23830551 7.88864358 12.16796875 10.96484375 C11.18860352 11.94614258 11.18860352 11.94614258 10.18945312 12.94726562 C9.52880859 13.60404297 8.86816406 14.26082031 8.1875 14.9375 C7.50751953 15.62134766 6.82753906 16.30519531 6.12695312 17.00976562 C5.48048828 17.65494141 4.83402344 18.30011719 4.16796875 18.96484375 C3.58297607 19.5487085 2.9979834 20.13257324 2.39526367 20.73413086 C1 22 1 22 0 22 C0 14.74 0 7.48 0 0 Z " fill="#0E0E0E" transform="translate(0,506)"/>
</svg>
