<?xml version="1.0" encoding="UTF-8"?>
<svg version="1.1" viewBox="0 0 2048 584" width="575" height="164" xmlns="http://www.w3.org/2000/svg">
<path transform="translate(1821,115)" d="m0 0h9l1 9v203l13 3 1 2v12l-7 2-48 3h-6l-2-5-1-13h-3l-2 4-10 8-12 5-10 2h-17l-15-4-12-7-6-5-8-10-8-16-5-21-1-8v-16l3-19 4-12 6-12 7-9 5-6 10-8 14-7 11-3h21l12 4 11 7 5 4v-57l-19-2-3-1-1-2v-11l6-2 46-10zm-65 98-10 4-8 7-6 10-5 16-1 8v22l3 15 5 12 4 6 7 6 7 3h15l10-5 2-2v-95l-9-5-8-2z" fill="#FDFDFD"/>
<path transform="translate(428,136)" d="m0 0h161l1 9 1 25v21h-26l-3-15-3-18v-4h-53l-1 73h34l3-22 2-2h17l1 1v67h-19l-3-19v-5l-35-1 1 81h58l2-8 5-28 1-1h25l1 3-2 51-1 1h-167l-1-1v-12l1-4 18-2h5v-171h-12l-10-1-2-2v-14z" fill="#FDFDFD"/>
<path transform="translate(1278,130)" d="m0 0 21 1 20 4 19 8 5 4 1 5v43l-12 1h-11l-2-3-8-37-2-3-10-3-14-1-14 2-14 7-10 9-8 11-6 12-5 18-3 23v20l3 23 4 15 5 12 7 11 6 7 12 8 11 4 5 1h17l15-4 4-1 1-9 6-29 1-2h24v30l-1 18-5 3-14 6-20 5-12 2h-10l-7 1-8-1-12-1-21-5-12-5-11-6-13-10-8-8-9-13-8-17-5-19-2-14v-24l3-19 5-16 8-16 8-11 6-7 11-9 15-9 15-6 17-4z" fill="#FDFDFD"/>
<path transform="translate(1426,187)" d="m0 0h29l16 4 11 6 7 8 5 10 3 11 1 8 1 86 1 5 2 1h6l6-5 5 1 4 4-2 6-9 10-8 5-13 3h-12l-11-3-8-5-7-8-1-6-5 3-10 9-10 6-9 3-5 1h-16l-11-3-8-4-8-8-5-11-2-7v-15l3-10 7-10 9-8 17-9 19-7 28-8 2-1v-19l-2-13-4-8-8-4-14-2h-5l-3 25-4 9-6 7-9 3h-8l-9-3-6-7-1-2v-12l4-9 6-8 8-7 17-8 14-3zm20 77-12 5-11 6-8 8-3 6-2 8v9l4 11 5 5 5 2h10l12-6 3-3v-51z" fill="#FDFDFD"/>
<path transform="translate(1e3 187)" d="m0 0h23l16 4 11 6 9 7 9 12 5 11 3 11 1 7v17l-1 8-1 1-91 1 2 14 5 13 6 8 7 6 10 5 8 1h9l11-2 12-6 9-8 4 2 5 4 3 2-1 5-7 10-10 10-14 8-17 5-7 1h-21l-15-3-13-5-14-9-9-9-9-14-5-13-3-13-1-10v-10l2-15 6-18 9-14 9-10 11-8 16-8zm4 16-6 3-5 5-5 10-4 16-1 18h28l10-2 6-4 3-10-1-16-3-9-7-8-6-3z" fill="#FEFEFE"/>
<path transform="translate(285,256)" d="m0 0h8l7 3 2 2v14l-3 28v14l3 19 7 25v13l-6 20-17 50-7 19-6 10-5 4-7 3-5 1h-16l-12-4-9-6-8-9-5-11-2-9v-18l4-16 7-12 9-9 16-9 16-8 4-4v-9l-9-35-1-6v-23l4-13 6-11 8-7 8-4z" fill="#F7B1B5"/>
<path transform="translate(1917,187)" d="m0 0h25l16 3 13 5 8 4v20l-1 14-1 1h-25l-4-15-3-13-10-1h-12l-10 3-5 4-3 8 1 7 4 6 8 5 16 6 18 5 16 8 10 8 7 11 3 9 1 5v13l-3 13-7 12-8 8-12 7-17 5-13 2h-24l-20-4-16-6-7-4v-31l1-8 1-1h23l2 3 4 26v3l12 3 8 1h9l13-3 6-4 3-5 1-8-3-8-5-5-11-5-29-9-16-8-9-9-6-10-3-13v-12l2-10 6-12 8-9 10-7 12-5z" fill="#FEFEFE"/>
<path transform="translate(673,115)" d="m0 0h9l2 5-1 208 13 1 4 1v15h-86l-1-1v-12l1-2 16-3 1-23 1-159-16-2-3-1-1-3v-7l1-4 55-12z" fill="#FDFDFD"/>
<path transform="translate(851,147)" d="m0 0h33v17l-1 27h33v22l-32 1v94l3 9 5 5 3 1h9l13-6 7 7-1 4-9 10-8 6-10 4-10 2h-18l-12-3-10-5-7-8-5-10-2-9v-102l-18 1-2-1v-18l1-1 21-3 4-8 12-34z" fill="#FDFDFD"/>
<path transform="translate(1587,187)" d="m0 0h5l3 3 2 22v13l1-1 10-18 11-12 9-5 5-2h15l8 3 6 5 5 9 1 2v11l-4 9-6 7-8 3h-9l-8-3-8-7-7-6-9 12-8 16-2 7v70l24 5v15h-93v-15l15-3 1-1 1-38v-36l-1-28-2-1-16-2-1-1v-12l10-4 28-10z" fill="#FDFDFD"/>
<path transform="translate(220,28)" d="m0 0 22 1 26 4 24 6 19 7 16 8 16 9 14 10 11 9 12 11 5 8-1 9-6 7-6 2-7-1-6-4-12-11-15-11-13-8-17-9-21-8-19-5-22-3h-37l-20 3-23 6-15 6-16 8-15 9-14 11-14 12-6 4-7 1-7-3-5-6-1-7 3-8 10-10 11-9 15-11 17-10 16-8 21-8 18-5 22-4z" fill="#FEFEFE"/>
<path transform="translate(779,187)" d="m0 0 7 1 1 3v132l1 4 13 3 1 1v14h-83l-1-3 1-12 15-3 1-63-1-40-10-2-8-1-1-1v-12l8-3 46-15z" fill="#FDFDFD"/>
<path transform="translate(219,91)" d="m0 0 22 1 22 4 24 8 19 10 14 10 11 9 7 7 2 4v9l-4 6-6 4h-8l-7-4-11-10-10-7-14-8-15-6-21-5-16-2h-15l-16 2-21 6-17 8-17 12-11 9-8 5h-8l-6-4-3-3-1-3v-9l4-6 9-9 18-13 16-9 17-7 17-5 18-3z" fill="#FEFEFE"/>
<path transform="translate(209,156)" d="m0 0h26l18 4 12 5 11 6 9 7 5 4 5 8v8l-6 8-7 3-7-1-10-8-14-9-12-4-18-2-15 2-14 5-13 9-8 6-5 2-9-2-6-7-1-2v-8l5-8 11-9 11-7 14-6z" fill="#FEFEFE"/>
<path transform="translate(133,307)" d="m0 0 10 1 41 13 22 8 8 7 2 5v10l-3 7-4 5-6 3h-12l-36-12-28-10-5-4-4-8v-11l3-6 7-6z" fill="#FEFEFE"/>
<path transform="translate(123,355)" d="m0 0 10 2 49 17 14 6 5 6 2 8-1 8-6 9-8 4-10-1-25-7-27-10-14-7-5-5-3-7 1-9 4-7 6-5z" fill="#FEFEFE"/>
<path transform="translate(1862,386)" d="m0 0h7l10 3 8 6 6 10 1 3v13l-4 9-7 8-9 4-5 1h-8l-9-3-9-8-4-8-1-3v-13l4-9 6-7 10-5z" fill="#F7B1B5"/>
<path transform="translate(1779,472)" d="m0 0h13l9 4 8 8 4 10v13l-5 10-5 5-8 5-4 1h-13l-9-4-6-5-5-9-1-4v-12l4-10 8-8z" fill="#F7B1B5"/>
<path transform="translate(132,410)" d="m0 0h7l15 5 26 11 6 5 3 7-1 10-5 8-6 3h-11l-17-6-19-8-6-4-4-5-2-6 1-8 4-6 6-5z" fill="#FEFEFE"/>
<path transform="translate(219,220)" d="m0 0h9l9 3 8 7 4 7 1 4v12l-4 9-5 6-10 5-11 1-10-3-8-7-5-10-1-8 3-12 9-10z" fill="#F7B1B5"/>
<path transform="translate(757,112)" d="m0 0 11 1 9 4 8 9 2 6v12l-5 10-8 6-8 3h-11l-9-3-8-7-4-9v-13l5-10 8-6z" fill="#FEFEFE"/>
<path transform="translate(1333,383)" d="m0 0h5l-1 6-11 24-8 16-3 5h-9l-1-2-3-33-3 4-14 29-2 2h-8l-1-1-5-47v-2h9l2 20v19h2l2-6 15-32 1-1h9l4 37 7-15 9-21z" fill="#FEFEFE"/>
<path transform="translate(160,262)" d="m0 0h12l8 4 6 7 2 5v9l-5 10-6 5-6 2h-9l-8-3-6-7-3-10 2-10 4-7 6-4z" fill="#FEFEFE"/>
<path transform="translate(1881,508)" d="m0 0h10l8 4 6 8 1 3v10l-3 6-4 5-8 4h-11l-6-3-7-8-2-9 2-9 7-8z" fill="#F7B1B5"/>
<path transform="translate(1788,393)" d="m0 0 10 2 5 5 2 4v13l-5 9-8 7-7 2-10-1-6-4-1 10-3 13h-7v-9l9-49 1-1h5l3 3 7-3zm-2 7-8 3-4 5-2 5v8l4 6 8 1 7-3 4-5 2-7-1-7-5-5z" fill="#FEFEFE"/>
<path transform="translate(575,394)" d="m0 0 5 1 2 28 3-4 11-24 1-1h7l2 7 2 23 9-20 4-9 2-1h6l-2 6-14 29-3 5h-8l-1-1-2-21-1-5-12 26-2 1h-7l-2-7-4-32z" fill="#FEFEFE"/>
<path transform="translate(1837,431)" d="m0 0 4 1 4 5 6 5-2 4-11 11-1 2h-2l-2 4-15 15-5 6-3-1-6-7-4-3v-3h2v-2h2l2-4 17-17 7-8z" fill="#F7B1B5"/>
<path transform="translate(1733,393)" d="m0 0 8 1 5 3h2l2-3h6l-1 12-4 23-2 5h-6l-4-2-8 3h-8l-6-3-5-7-1-10 3-9 9-10zm-3 8-8 7-2 5v7l4 6 3 2 9-1 7-6 2-5v-9l-4-5-2-1z" fill="#FDFDFD"/>
<path transform="translate(1096,394)" d="m0 0h14l6 3 2-3h6l1 5-6 34-1 1h-6l-4-2-9 3h-7l-6-3-4-4-2-6v-8l4-10 5-6zm3 7-5 3-4 5-1 3v9l4 6 9 1 8-5 3-6 1-9-4-6-2-1z" fill="#FEFEFE"/>
<path transform="translate(1554,393)" d="m0 0 10 1 7 6 2 4v11l-1 2-31 1 3 8 7 2 7-3 6-3 5-1-1 5-8 7-6 2h-10l-6-3-4-5-2-6 1-9 5-10 7-6zm-2 7-7 4-3 5v2l17 1 6-2-2-7-4-3z" fill="#FEFEFE"/>
<path transform="translate(963,393)" d="m0 0 10 1 6 4 4 8v9l-1 2-30 1-1 2 2 5 6 3 8-2 10-5h2l-1 4-4 5-7 4-4 1h-10l-5-3-4-5-2-5v-8l4-10 5-5 5-4zm-2 7-6 4-3 4v3h22l1-2-3-6-4-3z" fill="#FEFEFE"/>
<path transform="translate(1394,380)" d="m0 0h7l-1 10-2 7 10-4 10 1 6 5v18l-3 15-1 2h-7l-1-4 4-21-2-6-4-2-7 1-4 1-4 16-3 15h-7l-1-4 5-30 4-19z" fill="#FEFEFE"/>
<path transform="translate(485,380)" d="m0 0h7l1 4-3 13 10-4 10 1 5 5 1 2v15l-3 15-2 3h-6l-1-4 3-15v-10l-2-3-8-1-5 2-4 9-4 21-1 1h-7l-1-3 4-21 5-28z" fill="#FEFEFE"/>
<path transform="translate(1026,383)" d="m0 0h12l7 4 3 6-1 4h-7l-5-6-6-1-5 2-2 4 3 5 4 3 12 6 4 5v10l-7 8-8 2-11-1-5-3-4-7 1-4h6l5 6 2 1h8l4-3-1-7-17-9-4-5-1-2v-6l5-8z" fill="#FDFDFD"/>
<path transform="translate(449,383)" d="m0 0h11l6 3 4 4 1 6-1 1h-6l-8-7-8 1-3 5 1 5 16 8 5 4 2 7-2 7-7 6-8 2-10-1-8-7-1-6 1-1h6l5 6 2 1h8l4-4-1-6-17-9-4-5-1-2v-6l5-8z" fill="#FDFDFD"/>
<path transform="translate(719,393)" d="m0 0 10 2 6 5 2 5v12l-4 8-7 7-9 3h-9l-6-3-5-6-2-6 1-10 6-9 6-5 4-2zm-2 7-7 3-4 5-2 5v8l3 5 3 2h7l7-4 4-6 1-10-4-6-4-2z" fill="#FEFEFE"/>
<path transform="translate(540,394)" d="m0 0h14l6 4 4 6 1 9-3 9-4 6-9 6-5 1h-9l-6-3-4-5-2-4v-10l4-10 8-7zm3 6-6 3-5 8-1 7 3 8 4 2h7l6-4 4-5 1-3v-9l-5-6-2-1z" fill="#FEFEFE"/>
<path transform="translate(1164,394)" d="m0 0h7l-1 11-2 11 1 9 4 2 9-1 3-3 5-22 2-7h7v8l-5 29-2 3h-6l-4-1-9 2-10-2-4-6v-15l4-17z" fill="#FEFEFE"/>
<path transform="translate(1645,393)" d="m0 0 3 1-7 14-10 16-13 22-5 7-4 1-3-2 2-5 6-10 1-7-7-33 1-3h7l3 9 3 20 4-5 13-23z" fill="#FEFEFE"/>
<path transform="translate(847,384)" d="m0 0h28l1 3-2 3h-20l-1 12-1 4h17v5l-1 1-17 1-2 14 18 1v6h-28l1-10 6-36z" fill="#FDFCFC"/>
<path transform="translate(749,394)" d="m0 0h7l-1 8-2 15 1 8 3 2h7l6-4 3-11 3-17 2-1h6l1 2-6 34-2 4h-7l-3-1-2 1h-14l-6-5-1-2v-11l3-18z" fill="#FEFEFE"/>
<path transform="translate(1461,384)" d="m0 0h27l1 4-1 2h-20l-2 15 16 1 1 4-1 2h-18l-2 16h18l1 5-1 1h-28l2-13 6-36z" fill="#FDFDFD"/>
<path transform="translate(1220,393)" d="m0 0 10 1 6 5 2 7-1 1h-5l-4-5-7-2-5 3 1 5 16 8 2 3v7l-6 7-6 2h-9l-6-3-4-5v-5l4-1 7 6 6 1 5-3-1-4-9-4-6-4-3-4 1-8 4-5z" fill="#FEFEFE"/>
<path transform="translate(661,383)" d="m0 0 4 1 6 21v2l4-4 7-11 6-8 8-1-2 5-10 15-7 11-3 8-3 12h-7l-1-3 2-9v-9l-9-26v-3z" fill="#FEFEFE"/>
<path transform="translate(1819,502)" d="m0 0 8 1 38 12 1 5-3 8-9-2-35-11-3-2 2-9z" fill="#F7B1B5"/>
<path transform="translate(1493,394)" d="m0 0h8l2 6 4 24 3-3 8-16 6-10 2-1h6l-1 5-13 24-7 10-1 1h-8l-2-2-7-34z" fill="#FEFEFE"/>
<path transform="translate(1676,384)" d="m0 0h35l-1 5-2 1h-12l-1 10-6 33-1 1h-7l-1-2 7-39v-3h-12v-5z" fill="#FEFEFE"/>
<path transform="translate(1063,385)" d="m0 0h7l1 3-1 6h8l1 4-2 3h-8l-4 17-1 8 9 2-1 5-1 1h-10l-4-2-2-3 1-12 3-16-4-2v-4l6-1v-6z" fill="#FEFEFE"/>
<path transform="translate(927,384)" d="m0 0 6 1v9h8v5l-2 2-8-1-2 13-2 14h7l2 1-1 5-2 1h-9l-5-3-1-7 4-24h-4l1-5 4-1 2-8z" fill="#FDFDFD"/>
<path transform="translate(1366,385)" d="m0 0h8v9h7l1 5-1 1h-9l-4 22v4l9 3-1 4-1 1h-11l-5-4v-8l4-22-5-1 1-4 4-1z" fill="#FDFDFD"/>
<path transform="translate(1139,385)" d="m0 0h8l-1 10 8-1 1 1v5l-6 1-4-1-4 22v4l9 2-1 4-2 2h-9l-5-3-1-1 1-13 2-16-3-2 1-4 4-1z" fill="#FDFDFD"/>
<path transform="translate(887,380)" d="m0 0h7l-1 12-5 29-3 13h-7l-1-3 8-47z" fill="#FEFEFE"/>
<path transform="translate(1603,393)" d="m0 0h2l1 5-4 4-9 3-3 9-3 16-2 4h-7l2-16 4-22 1-2h6l3 4 5-4z" fill="#FDFDFD"/>
<path transform="translate(814,393)" d="m0 0 2 1-1 7-9 3-3 3-6 27h-7l-1-4 6-34 2-2 7 1 1 3 6-4z" fill="#FEFEFE"/>
<path transform="translate(1345,394)" d="m0 0 7 1-1 11-5 27-1 1h-7l-1-3 7-36z" fill="#FEFEFE"/>
<path transform="translate(903,394)" d="m0 0 8 1-2 13-4 23-1 3h-7l-1-4 6-34z" fill="#FEFEFE"/>
<path transform="translate(1350,378)" d="m0 0 6 2-1 6-1 2h-8l-1-4 2-5z" fill="#FEFEFE"/>
<path transform="translate(905,379)" d="m0 0h8l1 1-1 7-1 1h-8v-7z" fill="#FEFEFE"/>
</svg>
